HIERARCHY
ROOT Hips
{
	OFFSET	0.000000	0.000000	0.000000
	CHANNELS 6 Xposition Yposition Zposition Zrotation Xrotation Yrotation
	JOINT LeftHip
	{
		OFFSET	4.740440	-3.195970	-0.322709
		CHANNELS 3 Zrotation Xrotation Yrotation
		JOINT LeftKnee
		{
			OFFSET	-1.605680	-15.592300	1.005510
			CHANNELS 3 Zrotation Xrotation Yrotation
			JOINT LeftAnkle
			{
				OFFSET	-0.632401	-16.421000	-1.413730
				CHANNELS 3 Zrotation Xrotation Yrotation
				End Site
				{
					OFFSET	0.008423	-2.933000	-1.776750
				}
			}
		}
	}
	JOINT RightHip
	{
		OFFSET	-4.740440	-3.195970	-0.322709
		CHANNELS 3 Zrotation Xrotation Yrotation
		JOINT RightKnee
		{
			OFFSET	1.605680	-15.592300	1.005510
			CHANNELS 3 Zrotation Xrotation Yrotation
			JOINT RightAnkle
			{
				OFFSET	0.632401	-16.421000	-1.413730
				CHANNELS 3 Zrotation Xrotation Yrotation
				End Site
				{
					OFFSET	-0.008423	-2.933000	-1.776750
				}
			}
		}
	}
	JOINT Chest
	{
		OFFSET	0.000000	3.468200	0.078401
		CHANNELS 3 Zrotation Xrotation Yrotation
		JOINT LeftCollar
		{
			OFFSET	3.857650	15.070700	-0.011583
			CHANNELS 3 Zrotation Xrotation Yrotation
			JOINT LeftShoulder
			{
				OFFSET	3.979720	-1.940530	-0.165223
				CHANNELS 3 Zrotation Xrotation Yrotation
				JOINT LeftElbow
				{
					OFFSET	0.615844	-10.986600	-0.673886
					CHANNELS 3 Zrotation Xrotation Yrotation
					JOINT LeftWrist
					{
						OFFSET	0.826843	-10.854500	1.034220
						CHANNELS 3 Zrotation Xrotation Yrotation
						End Site
						{
							OFFSET	-1.679080	-8.456540	0.936217
						}
					}
				}
			}
		}
		JOINT RightCollar
		{
			OFFSET	-3.857650	15.070700	-0.011583
			CHANNELS 3 Zrotation Xrotation Yrotation
			JOINT RightShoulder
			{
				OFFSET	-3.979720	-1.940530	-0.165223
				CHANNELS 3 Zrotation Xrotation Yrotation
				JOINT RightElbow
				{
					OFFSET	-0.615845	-10.986600	-0.673886
					CHANNELS 3 Zrotation Xrotation Yrotation
					JOINT RightWrist
					{
						OFFSET	-0.826843	-10.854500	1.034220
						CHANNELS 3 Zrotation Xrotation Yrotation
						End Site
						{
							OFFSET	1.679080	-8.456540	0.936217
						}
					}
				}
			}
		}
		JOINT Neck
		{
			OFFSET	0.000000	15.101400	0.055730
			CHANNELS 3 Zrotation Xrotation Yrotation
			JOINT Head
			{
				OFFSET	0.000000	4.185120	1.488260
				CHANNELS 3 Zrotation Xrotation Yrotation
				End Site
				{
					OFFSET	0.000000	7.773420	-0.106016
				}
			}
		}
	}
}
MOTION
Frames:     21
Frame Time: 0.016667
1.436272	37.515858	-8.877150	6.083165	-5.398874	12.518225	-5.043773	9.303954	0.825642	-2.681437	2.726905	11.287888	3.780133	-5.698239	2.661667	-12.066954	-11.975440	-8.979526	-0.631687	11.870095	2.934966	5.311205	8.167534	-0.360397	-3.572446	4.890097	-4.832891	-3.116267	3.625975	-1.901374	6.695252	-1.895921	4.496207	-3.397253	-19.577068	-12.954656	10.044581	6.253229	-17.559372	1.234565	2.193947	1.722991	-6.212703	-2.765966	-3.215946	-1.843732	-12.745795	13.176519	-15.310431	-3.303653	12.738223	-1.000304	6.094620	-2.744830	3.930371	3.520736	-14.516710	
1.448731	37.517162	-8.871477	6.033202	-5.407486	12.430423	-5.024243	9.308293	0.800794	-2.679668	2.736234	11.380219	3.805632	-5.723845	2.674926	-11.999377	-11.995048	-8.896940	-0.629345	11.910086	2.937885	5.306826	8.127572	-0.360097	-3.612876	4.898649	-4.864504	-3.081330	3.689352	-1.874170	6.665280	-1.813271	4.413867	-3.281114	-19.363590	-12.643505	9.698933	6.479468	-17.562799	1.381219	2.221752	1.757174	-6.282093	-2.830067	-3.353360	-1.796587	-12.861697	12.966579	-15.274976	-3.368658	12.955836	-0.955791	6.073117	-2.775670	3.927360	3.518977	-14.373988	
1.453556	37.516544	-8.868652	6.017786	-5.410096	12.403353	-5.016106	9.296186	0.795138	-2.686569	2.769600	11.394346	3.817292	-5.748520	2.693037	-11.978536	-12.001100	-8.871484	-0.628615	11.922285	2.938376	5.295673	8.117507	-0.361969	-3.608671	4.910566	-4.871689	-3.089610	3.705146	-1.878343	6.606225	-1.652136	4.387483	-3.190107	-19.131203	-12.262256	9.645108	6.270642	-17.712849	1.419233	2.223869	1.752722	-6.311774	-2.858702	-3.406533	-1.797927	-12.885633	12.844532	-15.246876	-3.443961	13.038202	-0.959584	6.055305	-2.803327	3.909165	3.495768	-14.331395	
1.462654	37.517960	-8.864411	5.974119	-5.417417	12.326697	-4.997638	9.299212	0.783850	-2.683307	2.776070	11.453801	3.845190	-5.765744	2.712257	-11.932178	-12.011139	-8.839276	-0.620797	11.956184	2.977987	5.258517	8.085221	-0.368546	-3.593675	4.864421	-4.914831	-3.089200	3.847336	-1.843185	6.526873	-1.602496	4.416549	-3.056743	-18.844057	-11.715260	9.162370	6.669100	-17.364910	1.487607	2.335438	1.751894	-6.367492	-2.955363	-3.493083	-1.731588	-12.888877	12.835167	-15.329649	-3.461220	12.844417	-0.980050	6.084786	-2.842118	3.907870	3.494820	-14.184675	
1.467976	37.517742	-8.856613	5.959235	-5.419889	12.300600	-4.993017	9.310849	0.781754	-2.683575	2.780209	11.454074	3.860138	-5.782675	2.736662	-11.922303	-12.014287	-8.832896	-0.613135	11.967627	2.994883	5.236245	8.077024	-0.373610	-3.552223	4.865711	-5.015161	-3.094501	3.868510	-1.714928	6.421593	-1.577676	4.393957	-2.940004	-18.451910	-11.079283	9.066188	6.484972	-17.462307	1.476638	2.350216	1.838068	-6.389642	-2.980004	-3.508291	-1.749383	-12.881732	12.705175	-15.366934	-3.494601	12.642336	-1.022047	6.076296	-2.724326	3.891356	3.451552	-14.238911	
1.473226	37.520306	-8.855125	5.905999	-5.428652	12.207450	-4.959777	9.313561	0.843830	-2.683430	2.784733	11.452516	3.873992	-5.798385	2.762810	-11.883966	-12.028039	-8.796817	-0.587057	11.999664	3.041762	5.212235	8.047007	-0.377143	-3.504365	4.857881	-4.933675	-2.979779	3.979457	-1.678511	6.063472	-1.552145	4.234420	-2.586414	-18.175425	-10.218315	8.435939	7.089506	-16.306303	1.529363	2.377516	1.771656	-6.446116	-3.027309	-3.600926	-1.749639	-12.869067	12.671087	-15.361007	-3.542903	12.608349	-1.040389	6.070004	-2.810683	3.868477	3.420883	-14.172394	
1.476331	37.519348	-8.846757	5.904437	-5.428822	12.204765	-4.960959	9.325092	0.843586	-2.685667	2.791246	11.426750	3.880701	-5.814955	2.791472	-11.915698	-12.021614	-8.846048	-0.562701	11.998705	3.087486	5.193077	8.049632	-0.381521	-3.521544	4.903229	-5.017260	-2.954070	3.970388	-1.567323	5.889834	-1.500973	4.146986	-2.327645	-17.846197	-9.357833	8.253282	6.921380	-16.275505	1.576950	2.350525	1.821989	-6.474578	-3.047592	-3.603364	-1.756804	-12.803013	12.524136	-15.393661	-3.640129	12.544753	-1.031827	6.022887	-2.749847	3.843547	3.389088	-14.165997	
1.477989	37.518311	-8.841372	5.904437	-5.428822	12.204765	-4.960959	9.325092	0.843586	-2.689644	2.809498	11.397730	3.884087	-5.831609	2.822042	-11.937636	-12.017198	-8.878653	-0.546775	11.997375	3.116136	5.178802	8.052932	-0.389198	-3.546174	4.938063	-5.047061	-2.895682	4.003318	-1.500450	5.681000	-1.500627	4.101128	-2.080866	-17.541801	-8.570852	7.602354	7.512829	-14.661105	1.605129	2.369457	1.796259	-6.475979	-3.079207	-3.659804	-1.765041	-12.722690	12.455132	-15.401692	-3.757434	12.580832	-1.007623	5.989779	-2.718347	3.841925	3.386970	-14.167309	
1.481357	37.517029	-8.836040	5.904437	-5.428822	12.204765	-4.960959	9.325092	0.843586	-2.697772	2.830167	11.391828	3.888757	-5.852996	2.829857	-11.964245	-12.017261	-8.893348	-0.523026	12.001369	3.125534	5.174699	8.054080	-0.394884	-3.562618	4.955829	-5.049037	-2.897004	3.999708	-1.478850	5.523367	-1.454417	4.074379	-1.865335	-17.291359	-7.873183	7.077831	7.962861	-13.202290	1.616637	2.377889	1.776770	-6.469419	-3.106483	-3.639116	-1.809682	-12.594699	12.327796	-15.469167	-3.883301	12.411665	-0.990066	5.973465	-2.715216	3.841925	3.386970	-14.167309	
1.488696	37.516838	-8.828661	5.885987	-5.431962	12.172571	-4.954820	9.338058	0.841908	-2.700678	2.833041	11.420239	3.893531	-5.874822	2.836177	-11.962138	-12.024693	-8.874443	-0.486549	12.026472	3.148484	5.148955	8.035131	-0.428567	-3.576984	4.970259	-5.041718	-2.917270	4.052193	-1.400031	5.420075	-1.431511	4.013558	-1.679605	-17.154678	-7.323139	6.833115	8.054816	-12.612102	1.614342	2.398344	1.787789	-6.433590	-3.089000	-3.648196	-1.872765	-12.474703	12.290317	-15.581631	-4.052035	12.300617	-0.966721	5.967523	-2.701443	3.834386	3.356368	-14.178355	
1.495547	37.516655	-8.820219	5.868825	-5.434838	12.142725	-4.948278	9.355660	0.851656	-2.704203	2.831915	11.434635	3.898257	-5.896384	2.842403	-11.948697	-12.024165	-8.855723	-0.470216	12.031693	3.162270	5.138285	8.025067	-0.440866	-3.597177	4.975598	-5.055507	-2.888299	4.047390	-1.351534	5.307365	-1.345927	3.996584	-1.573709	-17.087742	-6.966280	6.705130	8.114512	-12.232440	1.647931	2.394842	1.832998	-6.428680	-3.021956	-3.653486	-1.944748	-12.361153	12.281983	-15.710518	-4.137313	12.262139	-0.941667	5.972342	-2.666772	3.831916	3.337152	-14.172421	
1.501890	37.516090	-8.810827	5.855598	-5.437048	12.119752	-4.942471	9.373487	0.868853	-2.710299	2.834825	11.434090	3.903620	-5.920873	2.849500	-11.928482	-12.013627	-8.842311	-0.471610	12.025838	3.176863	5.127073	8.017691	-0.461231	-3.626146	4.981303	-5.042513	-2.888564	4.069522	-1.299600	5.270293	-1.296044	3.951199	-1.553355	-17.095312	-6.857733	6.656585	8.124938	-12.010718	1.688204	2.391094	1.845357	-6.425153	-2.973988	-3.655141	-2.013877	-12.236460	12.271589	-15.816529	-4.194710	12.230120	-0.914313	6.002075	-2.654832	3.845356	3.303893	-14.168622	
1.506337	37.515087	-8.803773	5.847727	-5.424799	12.120489	-4.937200	9.361382	0.865817	-2.719445	2.856673	11.429549	3.908911	-5.945052	2.856533	-11.924149	-12.025587	-8.847212	-0.471107	12.043300	3.187957	5.123176	7.999325	-0.475188	-3.643241	4.989603	-5.047590	-2.886197	4.063925	-1.274345	5.253862	-1.215144	3.917235	-1.556781	-17.173918	-6.856402	6.684936	8.110886	-12.052155	1.708497	2.388398	1.834110	-6.417196	-2.936483	-3.642397	-2.052764	-12.196827	12.265144	-15.850144	-4.096305	12.215050	-0.894900	5.994419	-2.650029	3.850107	3.291963	-14.167789	
1.511013	37.514671	-8.797272	5.836149	-5.426061	12.126534	-4.924477	9.360815	0.858506	-2.729058	2.880494	11.424572	3.914352	-5.969872	2.863743	-11.914154	-12.025272	-8.854604	-0.470537	12.062840	3.200397	5.112688	7.981695	-0.500423	-3.650446	5.009804	-5.057095	-2.924077	4.083745	-1.211779	5.296160	-1.216798	3.860506	-1.647975	-17.245308	-6.889486	6.758070	8.099602	-12.300770	1.708841	2.415893	1.800672	-6.392208	-2.929611	-3.611016	-2.174419	-11.952061	12.243631	-15.849106	-4.201591	12.137130	-0.872811	6.002009	-2.590448	3.853028	3.261424	-14.221992	
1.516175	37.514023	-8.790010	5.824803	-5.427303	12.132452	-4.912009	9.360260	0.851345	-2.739879	2.907324	11.418944	3.920479	-5.997822	2.871887	-11.904361	-12.024962	-8.861843	-0.470021	12.082065	3.213561	5.109253	7.962398	-0.516858	-3.651208	5.018462	-5.051666	-2.937344	4.094493	-1.195769	5.297663	-1.170591	3.827759	-1.631344	-17.313799	-6.935646	6.722893	7.985777	-12.569181	1.714803	2.425127	1.790760	-6.381014	-2.892771	-3.615755	-2.214642	-11.907317	12.236204	-15.853536	-4.213130	12.113688	-0.852913	5.995873	-2.571414	3.844407	3.256319	-14.244501	
1.522497	37.513275	-8.781101	5.813547	-5.428537	12.138317	-4.901778	9.364915	0.835402	-2.749385	2.929116	11.422126	3.926770	-6.026434	2.880242	-11.894639	-12.024659	-8.869020	-0.469510	12.100765	3.225996	5.098700	7.945651	-0.542385	-3.675163	5.023318	-4.956212	-2.928006	4.119504	-1.259645	5.316041	-1.156184	3.793127	-1.728695	-17.465582	-7.210250	6.743794	7.985659	-12.684107	1.741965	2.475879	1.704445	-6.366966	-2.897838	-3.636046	-2.324887	-11.680632	12.216433	-15.870015	-4.225958	12.050047	-0.793645	5.999534	-2.596795	3.831328	3.265147	-14.267756	
1.527573	37.512733	-8.773904	5.808052	-5.429145	12.141176	-4.900319	9.375957	0.812651	-2.751978	2.931524	11.438531	3.930146	-6.041777	2.884716	-11.889892	-12.024507	-8.872518	-0.469029	12.118484	3.237633	5.095050	7.928017	-0.557574	-3.680965	5.020800	-4.913614	-2.941634	4.143650	-1.274666	5.343030	-1.174184	3.766959	-1.752539	-17.508490	-7.300604	6.733931	7.956829	-12.752116	1.753355	2.496873	1.665735	-6.364170	-2.890006	-3.645358	-2.363335	-11.610782	12.209091	-15.868899	-4.256985	12.027315	-0.772938	6.005013	-2.614836	3.816318	3.260260	-14.273571	
1.539781	37.510715	-8.756487	5.791370	-5.430982	12.149838	-4.886350	9.385407	0.783107	-2.770700	2.974461	11.446423	3.942567	-6.098251	2.901233	-11.877160	-12.025405	-8.877837	-0.465983	12.137235	3.244059	5.084690	7.912841	-0.582905	-3.692918	5.014402	-4.806951	-2.935857	4.178132	-1.355702	5.374135	-1.197056	3.738061	-1.813984	-17.607895	-7.568437	6.803463	7.785666	-12.961053	1.807304	2.537734	1.581188	-6.381079	-2.841599	-3.682914	-2.453437	-11.464294	12.196334	-15.879339	-4.273346	11.974390	-0.718540	6.019237	-2.651163	3.770764	3.243317	-14.293326	
1.544935	37.509712	-8.749117	5.785972	-5.431574	12.152638	-4.882544	9.389857	0.770026	-2.778342	2.991911	11.451446	3.947773	-6.121871	2.908174	-11.874835	-12.027117	-8.873897	-0.462154	12.147708	3.242771	5.081419	7.905043	-0.593782	-3.693967	5.012858	-4.783590	-2.961810	4.204146	-1.345294	5.408334	-1.222244	3.706322	-1.814481	-17.608330	-7.660340	6.844609	7.705134	-13.037007	1.822972	2.551876	1.566422	-6.388095	-2.827334	-3.696881	-2.474906	-11.435789	12.194058	-15.881064	-4.279954	11.961024	-0.704292	6.023103	-2.648836	3.755748	3.237438	-14.302995	
1.556838	37.507233	-8.732048	5.771069	-5.433225	12.160363	-4.868498	9.393780	0.749216	-2.800642	3.045902	11.450514	3.961385	-6.183574	2.926383	-11.883265	-12.043169	-8.816161	-0.439543	12.192424	3.193187	5.082853	7.880924	-0.627319	-3.691787	5.009536	-4.739237	-2.974088	4.229885	-1.366543	5.451578	-1.280329	3.682725	-1.839239	-17.590408	-7.954934	7.011821	7.477448	-13.318083	1.862136	2.593014	1.547859	-6.412439	-2.831732	-3.736903	-2.512902	-11.369004	12.190486	-15.889295	-4.264728	11.939427	-0.684824	6.070115	-2.620466	3.713729	3.181472	-14.303834	
1.559103	37.506516	-8.729681	5.766444	-5.433728	12.162758	-4.861660	9.384353	0.748409	-2.809444	3.073274	11.444753	3.965533	-6.202381	2.931943	-11.886401	-12.048682	-8.796608	-0.434710	12.207025	3.177012	5.085923	7.873220	-0.638549	-3.698830	5.007045	-4.694658	-2.999253	4.218249	-1.406164	5.500984	-1.288116	3.679619	-1.845718	-17.561022	-8.067085	7.097301	7.418998	-13.413632	1.892392	2.628230	1.539527	-6.431928	-2.860289	-3.779369	-2.512407	-11.365708	12.156140	-15.901277	-4.239426	11.940042	-0.664461	6.075194	-2.645079	3.692034	3.175286	-14.294895	
